{
  "accessors": [
    {
      "bufferView": 2,
      "componentType": 5126,
      "count": 1897,
      "max": [
        3.15162992477417,
        7.307330131530762,
        0.9396160244941711
      ],
      "min": [
        -3.175600051879883,
        -1.7838500634285764e-17,
        -1.0273000001907349
      ],
      "type": "VEC3"
    },
    {
      "bufferView": 2,
      "byteOffset": 22764,
      "componentType": 5126,
      "count": 1897,
      "max": [
        0.999973475933075,
        0.999995768070221,
        0.9999814629554749
      ],
      "min": [
        -0.999973475933075,
        -1.0,
        -0.9999868869781494
      ],
      "type": "VEC3"
    },
    {
      "bufferView": 1,
      "componentType": 5126,
      "count": 1897,
      "max": [
        0.9829239845275879,
        0.994858980178833
      ],
      "min": [
        0.004604729823768139,
        0.008365870453417301
      ],
      "type": "VEC2"
    },
    {
      "bufferView": 0,
      "componentType": 5125,
      "count": 6288,
      "type": "SCALAR"
    },
    {
      "bufferView": 2,
      "byteOffset": 45528,
      "componentType": 5126,
      "count": 1685,
      "max": [
        2.9652199745178223,
        7.36998987197876,
        0.6539869904518127
      ],
      "min": [
        -3.284990072250366,
        -0.0380919985473156,
        -0.6913899779319763
      ],
      "type": "VEC3"
    },
    {
      "bufferView": 2,
      "byteOffset": 65748,
      "componentType": 5126,
      "count": 1685,
      "max": [
        0.9983603358268738,
        0.9956300258636475,
        0.9997568726539612
      ],
      "min": [
        -0.9982230067253113,
        -0.9999966621398926,
        -0.9990551471710205
      ],
      "type": "VEC3"
    },
    {
      "bufferView": 1,
      "byteOffset": 15176,
      "componentType": 5126,
      "count": 1685,
      "max": [
        0.9985340237617493,
        0.9900060296058655
      ],
      "min": [
        0.010498099960386753,
        0.006158110219985247
      ],
      "type": "VEC2"
    },
    {
      "bufferView": 0,
      "byteOffset": 25152,
      "componentType": 5125,
      "count": 5787,
      "type": "SCALAR"
    },
    {
      "bufferView": 2,
      "byteOffset": 85968,
      "componentType": 5126,
      "count": 1860,
      "max": [
        3.1324100494384766,
        7.279429912567139,
        0.7927320003509521
      ],
      "min": [
        -3.0631699562072754,
        0.0,
        -0.6654790043830872
      ],
      "type": "VEC3"
    },
    {
      "bufferView": 2,
      "byteOffset": 108288,
      "componentType": 5126,
      "count": 1860,
      "max": [
        0.9991781115531921,
        0.9981335401535034,
        0.9997808933258057
      ],
      "min": [
        -1.0,
        -0.9999946355819702,
        -0.9999964833259583
      ],
      "type": "VEC3"
    },
    {
      "bufferView": 1,
      "byteOffset": 28656,
      "componentType": 5126,
      "count": 1860,
      "max": [
        0.9951000213623047,
        0.9979169964790344
      ],
      "min": [
        0.009281010366976261,
        0.0060210200026631355
      ],
      "type": "VEC2"
    },
    {
      "bufferView": 0,
      "byteOffset": 48300,
      "componentType": 5125,
      "count": 5700,
      "type": "SCALAR"
    }
  ],
  "asset": {
    "extras": {
      "author": "Götz von Berlichingen (https://sketchfab.com/vonBerlichingen)",
      "license": "CC-BY-4.0 (http://creativecommons.org/licenses/by/4.0/)",
      "source": "https://sketchfab.com/3d-models/ww2-leaders-low-poly-9011d84c1ab44f178e94fcc5ebd3fba1",
      "title": "WW2 Leaders (low poly)"
    },
    "generator": "Sketchfab-14.64.0",
    "version": "2.0"
  },
  "bufferViews": [
    {
      "buffer": 0,
      "byteLength": 71100,
      "name": "floatBufferViews",
      "target": 34963
    },
    {
      "buffer": 0,
      "byteLength": 43536,
      "byteOffset": 71100,
      "byteStride": 8,
      "name": "floatBufferViews",
      "target": 34962
    },
    {
      "buffer": 0,
      "byteLength": 130608,
      "byteOffset": 114636,
      "byteStride": 12,
      "name": "floatBufferViews",
      "target": 34962
    }
  ],
  "buffers": [
    {
      "byteLength": 245244,
      "uri": "scene.bin"
    }
  ],
  "extensionsUsed": [
    "KHR_materials_specular"
  ],
  "images": [
    {
      "uri": "textures/stalin_baseColor.png"
    },
    {
      "uri": "textures/hitler_baseColor.png"
    },
    {
      "uri": "textures/churchill_baseColor.png"
    }
  ],
  "materials": [
    {
      "doubleSided": true,
      "extensions": {
        "KHR_materials_specular": {
          "specularColorFactor": [
            1.0,
            1.0,
            1.0
          ],
          "specularFactor": 0.20621218131560223
        }
      },
      "name": "stalin",
      "pbrMetallicRoughness": {
        "baseColorTexture": {
          "index": 0
        },
        "metallicFactor": 0.0,
        "roughnessFactor": 0.6
      }
    },
    {
      "doubleSided": true,
      "extensions": {
        "KHR_materials_specular": {
          "specularColorFactor": [
            1.0,
            1.0,
            1.0
          ],
          "specularFactor": 0.20621218131560223
        }
      },
      "name": "hitler",
      "pbrMetallicRoughness": {
        "baseColorTexture": {
          "index": 1
        },
        "metallicFactor": 0.0,
        "roughnessFactor": 0.6552636052815505
      }
    },
    {
      "doubleSided": true,
      "extensions": {
        "KHR_materials_specular": {
          "specularColorFactor": [
            1.0,
            1.0,
            1.0
          ],
          "specularFactor": 0.23769495708897662
        }
      },
      "name": "churchill",
      "pbrMetallicRoughness": {
        "baseColorTexture": {
          "index": 2
        },
        "metallicFactor": 0.0,
        "roughnessFactor": 0.6
      }
    }
  ],
  "meshes": [
    {
      "name": "Material1",
      "primitives": [
        {
          "attributes": {
            "NORMAL": 1,
            "POSITION": 0,
            "TEXCOORD_0": 2
          },
          "indices": 3,
          "material": 2,
          "mode": 4
        }
      ]
    },
    {
      "name": "Material1",
      "primitives": [
        {
          "attributes": {
            "NORMAL": 5,
            "POSITION": 4,
            "TEXCOORD_0": 6
          },
          "indices": 7,
          "material": 1,
          "mode": 4
        }
      ]
    },
    {
      "name": "Material1",
      "primitives": [
        {
          "attributes": {
            "NORMAL": 9,
            "POSITION": 8,
            "TEXCOORD_0": 10
          },
          "indices": 11,
          "material": 0,
          "mode": 4
        }
      ]
    }
  ],
  "nodes": [
    {
      "children": [
        1
      ],
      "matrix": [
        1.0,
        0.0,
        0.0,
        0.0,
        0.0,
        2.220446049250313e-16,
        -1.0,
        0.0,
        0.0,
        1.0,
        2.220446049250313e-16,
        0.0,
        0.0,
        0.0,
        0.0,
        1.0
      ],
      "name": "Sketchfab_model"
    },
    {
      "children": [
        2,
        4,
        6
      ],
      "matrix": [
        1.0,
        0.0,
        0.0,
        0.0,
        0.0,
        -4.371139006309477e-08,
        0.999999999999999,
        0.0,
        0.0,
        -0.999999999999999,
        -4.371139006309477e-08,
        0.0,
        0.0,
        0.0,
        0.0,
        1.0
      ],
      "name": "Collada visual scene group"
    },
    {
      "children": [
        3
      ],
      "matrix": [
        1.0,
        0.0,
        0.0,
        0.0,
        0.0,
        1.0,
        0.0,
        0.0,
        0.0,
        0.0,
        1.0,
        0.0,
        0.06287150084972382,
        0.0,
        -2.4773800373077393,
        1.0
      ],
      "name": "churchill"
    },
    {
      "mesh": 0,
      "name": "Material1"
    },
    {
      "children": [
        5
      ],
      "matrix": [
        1.0,
        0.0,
        0.0,
        0.0,
        0.0,
        1.0,
        0.0,
        0.0,
        0.0,
        0.0,
        1.0,
        0.0,
        -3.13100004196167,
        0.0,
        0.0,
        1.0
      ],
      "name": "hitler"
    },
    {
      "mesh": 1,
      "name": "Material1"
    },
    {
      "children": [
        7
      ],
      "matrix": [
        1.0,
        0.0,
        0.0,
        0.0,
        0.0,
        1.0,
        0.0,
        0.0,
        0.0,
        0.0,
        1.0,
        0.0,
        3.437340021133423,
        0.0,
        0.0,
        1.0
      ],
      "name": "stalin"
    },
    {
      "mesh": 2,
      "name": "Material1"
    }
  ],
  "samplers": [
    {
      "magFilter": 9729,
      "minFilter": 9987,
      "wrapS": 10497,
      "wrapT": 10497
    }
  ],
  "scene": 0,
  "scenes": [
    {
      "name": "Sketchfab_Scene",
      "nodes": [
        0
      ]
    }
  ],
  "textures": [
    {
      "sampler": 0,
      "source": 0
    },
    {
      "sampler": 0,
      "source": 1
    },
    {
      "sampler": 0,
      "source": 2
    }
  ]
}
